Hirokin The Last Samurai 2011 DVDRip Xvid AC3 - TODE
 
http://www.imdb.com/title/tt1693679/

Hirokin, a reluctant hero marked by a dark past, must fulfill his destiny when forced to choose between avenging the murder of his family or fighting for the freedom of a people long abused.

Director: Alejo Mo-Sun
Writer: Alejo Mo-Sun
Stars:Wes Bentley, Jessica Szohr and Angus Macfadyen 

Format : AVI
Format/Info : Audio Video Interleave
File size : 726 MiB
Duration : 1h 41mn
Overall bit rate : 1 002 Kbps
Writing application : Lavf54.3.100

Video
ID : 0
Format : MPEG-4 Visual
Format profile : Simple@L3
Format settings, BVOP : No
Format settings, QPel : No
Format settings, GMC : No warppoints
Format settings, Matrix : Default (H.263)
Codec ID : XVID
Codec ID/Hint : XviD
Duration : 1h 41mn
Bit rate : 799 Kbps
Width : 640 pixels
Height : 352 pixels
Display aspect ratio : 16:9
Frame rate : 25.000 fps
Color space : YUV
Chroma subsampling : 4:2:0
Bit depth : 8 bits
Scan type : Progressive
Compression mode : Lossy
Bits/(Pixel*Frame) : 0.142
Stream size : 579 MiB (80%)
Writing library : XviD 64

Audio
ID : 1
Format : AC-3
Format/Info : Audio Coding 3
Mode extension : CM (complete main)
Codec ID : 2000
Duration : 1h 41mn
Bit rate mode : Constant
Bit rate : 192 Kbps
Channel(s) : 2 channels
Channel positions : Front: L R
Sampling rate : 48.0 KHz
Bit depth : 16 bits
Compression mode : Lossy
Stream size : 139 MiB (19%)
Alignment : Aligned on interleaves
Interleave, duration : 32 ms (0.80 video frame)
Title : VTS_01_1 T80 2_0ch 224Kbps DELAY 0ms_new


Poster:

 
http://i.imgur.com/avL6V.jpg


Screenshots:

 
http://i.imgur.com/uTCQ1.jpg


ENJOY!